<svg width="16" height="16" viewBox="0 0 16 16" fill="none" xmlns="http://www.w3.org/2000/svg">
<path d="M11.999 3.97683C11.8346 3.82442 11.6178 3.73989 11.4332 3.68671C11.2363 3.62998 11.011 3.5913 10.7791 3.56421C10.3142 3.50993 9.7691 3.49637 9.25892 3.50077C8.74586 3.50521 8.2544 3.528 7.89218 3.54956C7.71075 3.56037 7.56102 3.5709 7.4563 3.57877C7.40393 3.5827 7.36278 3.58597 7.33451 3.58827L7.30197 3.59097L7.29332 3.5917L7.28997 3.59199C7.01487 3.61596 6.81128 3.8584 6.83525 4.1335C6.85921 4.40858 7.10202 4.61213 7.3771 4.58819L7.37878 4.58804L7.38605 4.58743L7.41572 4.58497C7.44202 4.58283 7.48106 4.57972 7.5312 4.57596C7.6315 4.56842 7.77603 4.55825 7.9516 4.5478C8.30337 4.52685 8.77686 4.50497 9.26756 4.50074C9.76114 4.49647 10.2586 4.51024 10.6631 4.55746C10.6858 4.56012 10.708 4.56286 10.7298 4.56568L3.64645 11.6491C3.45118 11.8443 3.45118 12.1609 3.64645 12.3562C3.84171 12.5514 4.15829 12.5514 4.35355 12.3562L11.4386 5.27114C11.4397 5.28071 11.4409 5.29038 11.442 5.30014C11.4889 5.70002 11.5029 6.20031 11.4991 6.7003C11.4952 7.19717 11.474 7.6797 11.4536 8.03903C11.4434 8.21838 11.4334 8.36631 11.4261 8.46909C11.4224 8.52047 11.4193 8.56052 11.4172 8.58753L11.4148 8.61804L11.414 8.6277C11.3912 8.90287 11.5957 9.14449 11.8709 9.16736C12.1461 9.19024 12.3877 8.98537 12.4106 8.71017L12.4109 8.70712L12.4116 8.69831L12.4142 8.66507C12.4165 8.63619 12.4197 8.59413 12.4235 8.54062C12.4312 8.43364 12.4414 8.28074 12.452 8.09578C12.4729 7.72651 12.495 7.22657 12.499 6.70799C12.503 6.19253 12.4892 5.64439 12.4352 5.18375C12.4084 4.95424 12.3698 4.73125 12.3126 4.53851C12.2604 4.36287 12.172 4.13729 11.999 3.97683Z" fill="#00875A"/>
</svg>
